<svg fill="none" height="60" viewBox="0 0 266 60" width="266" xmlns="http://www.w3.org/2000/svg"><g fill="#0a0a0a"><path d="m32.1028.19873-15.6786 15.67867v-6.70385h-6.3351v15.30995h6.3351v-8.6061l4.4796 4.4796 15.6787-15.67865z"/><path d="m27.5105 13.9247h21.1171v6.3352h-21.1171z"/><path d="m2.70058 36.0979h9.24342l-11.944-11.9441 4.4796-4.4796 12.0411 12.0411-4.3826 4.3826h9.0399v6.3351h-18.47742z"/><path d="m19.6674 53.2697 12.5968-12.5969v9.679h6.3351v-19.0054h-6.3351v9.1357l-4.3842-4.3843-12.6922 12.6923z"/><path d="m32.263 24.7399 14.1854 14.1854 4.4796-4.4796-14.1854-14.1855z"/><g clip-rule="evenodd" fill-rule="evenodd"><path d="m74.8823 46.8915h9.2445c5.2303.0802 9.1611-.2113 11.9559-1.414 2.8347-1.2428 4.8313-3.3074 5.9883-6.1939 1.198-2.8865 1.797-7.0558 1.797-12.5081 0-5.0513-.499-9.2425-1.497-12.0889s-2.695-4.95116-5.0906-6.31422c-2.3556-1.40316-5.7093-2.32523-10.0611-2.76622-1.9963-.20045-3.9327-.30067-5.8092-.30067-1.2282-.02624-2.607-.01814-4.0927-.00941-.7841.00461-1.598.00939-2.4351.0094zm18.2659-7.1869c-1.4373.922-3.4336 1.4632-5.9888 1.6236-.7586.0802-1.5771.1002-2.4555.0601-.8384-.04-1.8964-.1002-3.174-.1804v-29.8871c1.6768 0 3.5134.1002 5.5097.3007 2.675.3207 4.7311.9621 6.1685 1.9243 1.4373.9622 2.4554 2.4455 3.0542 4.45.5989 1.9644.8984 4.7306.8984 8.2986 0 3.7685-.3194 6.7151-.9582 8.8399-.5989 2.0847-1.617 3.6081-3.0543 4.5703z"/><path d="m109.602 46.3796c1.518.5612 3.654.8419 6.408.8419 2.436 0 4.292-.3007 5.57-.9021 1.278-.6414 2.455-1.804 3.533-3.4878h.479v4.091h5.869v-21.2897c0-2.9265-.379-5.1716-1.137-6.7351-.759-1.6036-2.057-2.7261-3.893-3.3675-1.797-.6816-4.352-1.0223-7.666-1.0223-3.274 0-5.809.3006-7.606.902-1.756.5612-2.994 1.5434-3.713 2.9466-.718 1.3631-1.2 3.3321-1.2 5.8932h6.65c0-1.6837.399-2.8263 1.198-3.4277.838-.6013 2.395-.902 4.671-.902 1.717 0 3.055.1804 4.013.5412s1.637.9421 2.036 1.7439.599 1.9444.599 3.4277v.8419h-5.091c-3.872 0-6.867.3408-8.983 1.0223-2.116.6415-3.613 1.784-4.492 3.4277-.878 1.6036-1.317 3.8687-1.317 6.7953 0 2.4856.299 4.4099.898 5.773.639 1.363 1.697 2.3252 3.174 2.8865zm12.517-5.5926c-1.118.6013-2.735.902-4.851.902-2.076 0-3.493-.3207-4.252-.9621-.759-.6415-1.138-1.8241-1.138-3.548 0-1.4032.22-2.4656.659-3.1872.439-.7617 1.158-1.3029 2.156-1.6236 1.038-.3207 2.495-.5011 4.372-.5412l6.288-.0602c-.08 2.6059-.359 4.6104-.839 6.0135-.479 1.4032-1.277 2.4054-2.395 3.0068z"/><path d="m193.955 47.2215c-3.753 0-6.647-.4811-8.684-1.4433-2.036-.9622-3.473-2.6058-4.311-4.9311-.839-2.3252-1.258-5.6326-1.258-9.9223 0-4.3297.419-7.6572 1.258-9.9824.838-2.3252 2.275-3.9689 4.311-4.9311 2.037-1.0022 4.931-1.5033 8.684-1.5033s6.628.5011 8.624 1.5033c2.036.9622 3.474 2.6059 4.312 4.9311.878 2.3252 1.318 5.6527 1.318 9.9824 0 4.2897-.44 7.5971-1.318 9.9223-.838 2.2852-2.276 3.9289-4.312 4.9311-2.036.9622-4.911 1.4433-8.624 1.4433zm0-5.5325c2.076 0 3.653-.3207 4.731-.9621 1.118-.6415 1.917-1.7239 2.396-3.2473.479-1.5235.719-3.7084.719-6.5548 0-2.8864-.24-5.0914-.719-6.6148-.479-1.5635-1.278-2.666-2.396-3.3075-1.078-.6815-2.655-1.0223-4.731-1.0223s-3.673.3408-4.791 1.0223c-1.118.6415-1.916 1.744-2.395 3.3075-.479 1.5234-.719 3.7284-.719 6.6148 0 2.8464.24 5.0313.719 6.5548.479 1.5234 1.277 2.6058 2.395 3.2473 1.118.6414 2.715.9621 4.791.9621z"/></g><path d="m210.407 14.805h6.408v4.9347h.479c.998-2.0446 2.116-3.4277 3.353-4.1493 1.278-.7216 3.115-1.0824 5.51-1.0824 2.875 0 5.091.3808 6.648 1.1425 1.557.7216 2.675 1.9444 3.353 3.6683.679 1.7238 1.019 4.1894 1.019 7.3966v20.2072h-6.408v-20.3275c0-1.6437-.18-2.9266-.539-3.8486-.36-.9221-.979-1.5636-1.857-1.9244s-2.136-.5412-3.773-.5412c-2.036 0-3.613.3007-4.731.9021-1.078.6013-1.857 1.6236-2.336 3.0668-.479 1.4433-.718 3.4879-.718 6.1338v16.539h-6.408z"/><path clip-rule="evenodd" d="m250.149 47.2215c-2.755 0-4.891-.2807-6.408-.8419-1.477-.5613-2.535-1.5235-3.174-2.8865-.599-1.3631-.899-3.2874-.899-5.773 0-2.9266.44-5.1917 1.318-6.7953.878-1.6437 2.376-2.7862 4.492-3.4277 2.116-.6815 5.11-1.0223 8.983-1.0223h5.09v-.8419c0-1.4833-.199-2.6259-.599-3.4277-.399-.8018-1.078-1.3831-2.036-1.7439s-2.295-.5412-4.012-.5412c-2.276 0-3.833.3007-4.672.902-.798.6014-1.197 1.744-1.197 3.4277h-6.517c0-2.8035.348-4.5301 1.067-5.8932.719-1.4032 1.956-2.3854 3.713-2.9466 1.797-.6014 4.332-.902 7.606-.902 3.314 0 5.869.3407 7.665 1.0223 1.837.6414 3.135 1.7639 3.893 3.3675.759 1.5635 1.138 3.8086 1.138 6.7351v21.2897h-5.869v-4.091h-.479c-1.078 1.6838-2.256 2.8464-3.534 3.4878-1.277.6014-3.134.9021-5.569.9021zm1.258-5.5325c2.116 0 3.733-.3007 4.85-.902 1.118-.6014 1.917-1.6036 2.396-3.0068.479-1.4031.759-3.4076.838-6.0135l-6.288.0602c-1.876.0401-3.334.2205-4.372.5412-.998.3207-1.716.8619-2.156 1.6236-.439.7216-.658 1.784-.658 3.1872 0 1.7239.379 2.9065 1.137 3.548.759.6414 2.176.9621 4.253.9621z" fill-rule="evenodd"/><path d="m159.349 14.7388h-6.169l-6.058 26.4145h-2.205l-5.816-26.4145h-6.058l5.147 26.1926c.67 3.4095 3.659 5.8682 7.134 5.8682h1.168l-1.309 4.1114c-.065.1677-.125.3361-.185.5032-.526 1.4596-1.018 2.8252-3.867 2.8252h-3.969v5.2102l7.355.0759c2.218-.0379 5.005-1.651 7.077-8.6145z"/><path d="m174.634 47.003c-2.741 0-4.818-.3629-6.229-1.0886-1.37-.7256-2.298-1.8142-2.781-3.2656-.484-1.4917-.726-3.5277-.726-6.1079v-16.4492h-3.744l1.09-5.3218h2.896v-6.77312l5.866.00003v6.77309h7.31v5.3218h-7.31v16.2073c0 1.3304.121 2.3585.363 3.0842.282.6853.826 1.2095 1.632 1.5723.807.3629 2.016.5443 3.629.5443h1.686v5.5032z"/></g></svg>