<svg viewBox="0 -35 1200 277.44" xmlns="http://www.w3.org/2000/svg"><g fill="#002536"><path d="m115.39 0h-115.39v207.44h115.39c73.6 0 121.14-40.71 121.14-103.7s-47.55-103.74-121.14-103.74zm-2.54 166.33h-62.1v-125.2h62.1c40.99 0 67.45 24.58 67.45 62.59s-26.46 62.59-67.45 62.59z"/><path d="m449.28 140.3c27.24-12.61 41.63-34.91 41.63-64.51 0-46.74-36.62-75.79-95.57-75.79h-124.85v207.44h53.01v-57.08h69.36l40.6 57.08h58.46l-46.68-65.28 4.02-1.85h.03zm-57.78-29.5h-67.99v-70.28h67.99c27.82 0 43.17 12.52 43.17 35.28s-15.73 34.99-43.17 34.99z"/><path d="m982.47 0h-250.72l15.99 40.83h81.71v166.61h55.63v-166.61h81.38l15.99-40.83h.01z"/><path d="m605.78 0-90.03 207.44h56.09l11.11-29.6c42.3-12.49 71.69-13.39 113.3 1.39l10.54 28.21h57.37l-90.4-207.44h-68 .03zm-8.32 137.51 39.1-93.27h5.5l39.46 94.17c-28.66-11.36-55.38-12.25-84.06-.9z"/><path d="m1041.63 0-90.03 207.44h56.09l11.11-29.6c42.3-12.49 71.69-13.39 113.3 1.39l10.54 28.21h57.37l-90.41-207.44h-68zm-8.33 137.51 39.1-93.27h5.5l39.46 94.17c-28.66-11.36-55.38-12.25-84.06-.9z"/></g></svg>