<svg viewBox="0 0 50 24" xmlns="http://www.w3.org/2000/svg"><path d="m42.973 23.998c2.033 0 3.7-.677 4.795-1.953 1.122-1.329 1.486-2.659 1.486-5.37v-8.936c0-.731 0-1.539.052-2.112.026-.497-.417-.6-.809-.443-1.12.443-2.085.677-3.387.964-.313.078-.443.287-.443.522s.159.496.653.47c1.172-.052 1.484.183 1.484 1.04v5.761c-.183 1.563-1.484 2.892-3.126 2.892-1.486 0-2.346-.99-2.346-3.023v-6.072c0-.73.026-1.538.052-2.111.026-.497-.39-.6-.809-.443-1.095.417-2.007.677-3.232.964-.339.078-.47.287-.47.522s.157.496.652.47c1.067-.052 1.354.183 1.354 1.04v6.074c0 2.84 1.641 4.116 4.09 4.116 1.513 0 3.103-.86 3.833-2.45v2.113c-.001 1.666-.34 2.735-1.017 3.543-.703.835-1.615 1.304-2.788 1.304-1.382-.001-2.137-.497-2.137-1.226 0-.234.078-.496.078-.86 0-.677-.47-1.277-1.199-1.277-.912 0-1.354.703-1.354 1.513 0 1.407 1.537 2.97 4.585 2.97m-11.67-5.526c2.996 0 4.846-1.824 4.846-4.039 0-4.403-6.853-3.284-6.853-6.124 0-1.095.782-2.007 2.215-2.007 1.328 0 2.345.6 2.891 1.85l.261.6c.261.598.99.469.912-.131l-.26-2.136c-.052-.365-.156-.522-.47-.651-.99-.443-2.06-.652-3.205-.652-2.814 0-4.457 1.747-4.457 3.91 0 4.482 6.853 3.31 6.853 6.124 0 1.119-.912 2.11-2.658 2.11-1.512.001-2.425-.624-3.101-2.033l-.39-.808c-.237-.497-.966-.365-.861.287l.364 2.345c.052.341.183.444.471.575 1.119.521 2.032.781 3.438.781m-8.832.025c1.798 0 3.023-.938 3.491-2.58.185-.572-.415-.911-.78-.337-.496.859-1.225 1.224-2.06 1.224-1.067 0-1.615-.783-1.615-2.215v-7.896l3.44.026c.39 0 .547-.365.547-.677 0-.339-.183-.626-.6-.626l-3.387.026v-1.981c0-.339-.209-.496-.47-.496a.6.6 0 0 0 -.495.26c-.938 1.436-1.565 1.93-3.023 2.477-.313.129-.496.312-.496.547 0 .26.13.442.522.442h1.511v8.183c0 2.373 1.382 3.623 3.413 3.623m-10.656-1.486h-4.536c-1.407 0-1.771-.364-1.771-1.59v-5.732h3.648c1.354-.001 1.772.364 2.24 1.692l.366 1.07c.209.625 1.041.65 1.041-.078-.104-2.086-.104-4.536-.052-6.62.052-.729-.783-.703-.99-.078l-.364 1.07c-.47 1.354-.835 1.772-2.241 1.772h-3.648v-6.775c0-.365.155-.522.547-.522h5.447c1.59 0 2.266.442 2.762 1.824l.6 1.695c.234.677 1.041.574 1.041-.078l-.052-4.196c.001-.338-.207-.468-.494-.468h-14.751c-.469 0-.599.26-.599.522 0 .26.13.495.573.547 1.825.131 2.137.496 2.137 1.564v13.082c0 .99-.312 1.328-2.033 1.46-.416.051-.547.285-.547.547s.13.522.573.522h14.907c.286 0 .495-.13.495-.468l.052-4.196c0-.652-.807-.73-1.016-.078l-.547 1.694c-.444 1.408-1.2 1.825-2.788 1.825"/></svg>