<svg enable-background="new 0 0 974.8 200" viewBox="0 0 974.8 200" xmlns="http://www.w3.org/2000/svg"><g><path d="m950.5 41.9-22 62.4c-4 11.2-6 17.6-9.7 28.4h-.4c-2.9-9.3-5.5-16.8-9.3-27.8l-21.4-63.1h-25.6l44.3 115.8c-1 2.5-2 5.1-3.1 7.8-3.7 9-12.5 14.9-22.2 14.9h-11v19.7h11.3c18.3 0 34.8-11.1 41.6-28.2 14.1-35.3 38.1-95.4 51.8-129.9z"/><path d="m336.2 135.4c0 41.9-19.2 64.6-58 64.6-28.9 0-46.3-15.2-52.5-38.1h23.4c4 10.6 12.3 20.1 29.5 20.1 26.5 0 35.9-16.5 35.9-47.9-.2 0-.2-.2-.4-.2-5.7 9.9-18.5 18.7-38.8 18.7-32.6 0-53.4-23.6-53.4-56.7 0-34.4 22.5-57.6 53.6-57.6 20.1 0 32.2 8.6 38.8 18.1-.2-2.4-.2-4.9-.2-7.3v-7.3h22.1zm-90-39.7c0 22.5 12.6 38.6 34.2 38.6 19.4 0 34.4-13.7 34.4-39.3 0-22.7-13.2-37.9-34.4-37.9s-34.2 15.2-34.2 38.6z"/><path d="m372.7 105.6c.9 20.3 13.9 36.4 36.4 36.4 15.9 0 23.6-7.5 29.5-17.4h22.3c-6.6 20.9-24.9 35.9-52.7 35.9-35.7 0-58-24-58-60.2s23.2-61.7 58-61.7c37.7 0 55.1 28.7 55.1 59.8v7.3h-90.6zm67.4-17.6c-2-18.3-13.5-31.3-32.4-31.3-18.1 0-32 11.9-34.2 31.3z"/><path d="m499 41.9v14.8c3.7-10.8 15-17.6 28-17.6 2.9 0 4.2.2 5.7.4v20.3c-2-.4-5.3-.7-7.7-.7-20.9 0-24.9 15.4-24.9 38.6v60h-22.3v-95c0-7.3 0-13.7-.2-20.7h21.4z"/><path d="m761.7 141.1c-6 9.9-17.2 19.4-36.8 19.4-26.9 0-40.1-16.5-40.1-46.5v-72.1h22.2v63.7c0 22.7 7.5 36.4 25.6 36.4 23.8 0 28-21.6 28-47v-53.1h22.3v98.3c0 6 0 11.7.2 17.4h-21.4z"/><path d="m833 41.9h21.6v17.2h-21.6v69.5c0 11 5.5 14.3 14.1 14.3 1.5 0 4.2-.2 5.5-.4v16.5c-3.3.4-5.7.9-8.6.9-20.5 0-33.5-6.8-33.5-30v-70.8h-17.4v-17.2h17.4v-31.3h22.5z"/><g><path d="m0 115.6h23.1v42h-23.1z"/><path d="m87 7.7c-12.4-6.6-21-7.7-41.3-7.7h-45.7v95.6h23.1 3 19.4c18.1 0 31.6-1.1 43.5-9 13-8.6 19.7-22.9 19.7-39.4 0-17.9-8.3-32.2-21.7-39.5zm-36.2 67.9h-27.7v-55.1l26.1-.2c23.8-.3 35.7 8.1 35.7 27.1 0 20.4-14.7 28.2-34.1 28.2z"/></g><path d="m546.3 0h38.6c57.8.4 85.6 28.6 85.8 79.2.2 43.1-22.1 77.9-82 78.5h-42.3v-157.7zm23.4 138h13.5c41.9 0 63.8-16 63.8-58.9-.1-37.7-21.8-59.3-61.6-59.3-7.7 0-15.7.2-15.7.2z"/><path d="m189.7 157.7c-.7-4.6-.7-7.5-1.1-15.9-8.8 12.6-20.5 18.1-39 18.1-24.3 0-41.9-11.9-41.9-33.5 0-24.9 23.8-33.1 54.7-37.3 7.7-1.1 16.3-2 23.8-2.6 0-22.9-12.7-29.8-26-29.8s-23 9.3-23 21.5h-21.6c0-23.5 18.5-39.3 45.1-39.3s47.1 11 47.1 53.4v22.5c0 18.7.9 32.4 2.9 43h-21zm-58-31.6c0 10.8 8.8 17.6 22.9 17.6 20.7 0 31.8-12.6 31.8-35.1 0-2.9 0-4.9.2-6.2-37.7 3.9-54.9 7.6-54.9 23.7z"/></g></svg>