<svg class="MuiBox-root mui-nca6g2" preserveAspectRatio="xMinYMin meet" role="img" viewBox="0 0 761 102" xmlns="http://www.w3.org/2000/svg"><title>Taskrabbit Home</title><path class="MuiBox-root mui-1seqey5" d="M705.6 1.56016C704.09 0.540157 702.31 0.000156694 700.49 0.000156694L700.48 -0.00984331C699.26 -0.0498433 698.04 0.160157 696.91 0.610157C695.77 1.06016 694.74 1.74016 693.88 2.61016C693.02 3.48016 692.35 4.52016 691.9 5.66016C691.46 6.80016 691.25 8.02016 691.29 9.25016C691.29 11.0802 691.83 12.8702 692.84 14.3902C693.85 15.9102 695.29 17.1002 696.97 17.8002C698.65 18.5002 700.5 18.6902 702.28 18.3302C704.07 17.9802 705.7 17.0902 706.99 15.8002C708.28 14.5002 709.16 12.8502 709.51 11.0602C709.87 9.26016 709.69 7.40016 708.99 5.71016C708.29 4.02016 707.11 2.58016 705.6 1.56016ZM707.75 27.7002H693.3V99.0102H707.75V27.7002ZM359.39 9.22998H373.84V61.0843L397.8 27.74H413.46L389.9 59.99L416.17 99.05H399.36L373.84 61.1993V99.01H359.39V9.22998ZM180.33 78.5604V40.7704H167.77V27.7004H180.33V9.38037H194.78V27.7004H212.71V40.7704H194.73V78.5604C194.73 83.3904 196.84 85.9504 201.51 85.9504H212.02V99.0104H201.51C189.23 99.0104 180.34 91.0504 180.34 78.5604H180.33ZM213.97 63.355C213.972 38.7882 230.481 25.71 248.26 25.71C258.85 25.71 267.88 29.83 273.39 37.78V27.69H287.84V99H273.39V88.89C267.89 96.82 258.85 100.97 248.26 100.97C230.501 101 213.972 87.9217 213.97 63.355ZM251.23 87.36C263.79 87.36 273.39 78.69 273.39 63.36C273.39 48.03 263.79 39.36 251.23 39.36C238.67 39.36 228.9 48.02 228.9 63.36C228.9 78.7 238.53 87.36 251.23 87.36ZM311.64 79.2602H296.68V79.2702C298.23 92.8702 309.23 101.04 323.92 101.04C338.61 101.04 349.89 91.5002 349.89 78.5702C349.89 61.5824 337.492 59.0504 326.945 56.8967C319.141 55.3027 312.35 53.916 312.35 47.0302C312.35 41.6302 317.17 38.5002 322.65 38.5002C328.13 38.5002 331.83 41.2002 333.38 46.1702H348.34C346.79 33.6502 336.34 25.7202 322.65 25.7202C308.96 25.7202 297.39 34.5202 297.39 47.7402C297.39 64.3262 309.568 66.8067 320.052 68.942C327.975 70.5556 334.93 71.9722 334.93 79.1302C334.93 84.8102 330.13 88.2102 323.92 88.2102C317.71 88.2102 313.33 85.3802 311.64 79.2602ZM420.51 27.7001H420.5L420.51 27.6901V27.7001ZM420.51 27.7001H434.95V38.2701C437.65 34.3601 441.26 31.1801 445.46 28.9901C449.66 26.8001 454.33 25.6801 459.06 25.7101V40.7701C445.23 38.3501 434.92 44.8901 434.92 59.3801V99.0301H420.47L420.51 27.7001ZM460.99 80.2599C460.99 68.5999 467.77 62.2199 481.45 58.5199L504.04 52.5599V48.5899C504.04 43.2999 499.67 39.3399 491.9 39.3399C485.54 39.3399 479.48 41.7499 477.45 49.9899H461.97C464.52 33.7799 476.42 25.6899 491.9 25.6899C508.56 25.6899 518.43 34.7799 518.43 48.5599V98.9899H503.98V91.3199C498.9 98.2799 490.43 100.98 483.08 100.98C470.58 100.99 460.98 94.0299 460.98 80.2499L460.99 80.2599ZM486.26 88.4999C494.86 88.4999 504.04 82.9599 504.04 72.1599V64.6299L484.56 69.7499C478.06 71.5999 475.52 74.4399 475.52 79.2699C475.52 85.6699 480.31 88.5099 486.25 88.5099L486.26 88.4999ZM542.44 99.01V89.07V89.06C548.08 96.82 556.97 101 567.7 101.04C585.34 101.04 602.01 87.98 602.01 63.4C602.01 38.82 585.34 25.75 567.7 25.75C556.97 25.75 548.07 29.84 542.44 37.65V9.22998H527.99V99.01H542.44ZM586.93 63.36C586.93 78.69 577.33 87.36 564.76 87.36H564.72C552.02 87.36 542.43 78.7 542.43 63.36C542.43 48.02 552.19 39.36 564.76 39.36C577.33 39.36 586.93 48.03 586.93 63.36ZM625.23 89.07V99.01H610.78V9.22998H625.23V37.65C630.88 29.84 639.77 25.75 650.5 25.75C668.14 25.75 684.79 38.82 684.79 63.4C684.79 87.98 668.14 101.04 650.5 101.04C639.77 101 630.88 96.82 625.23 89.06V89.07ZM647.56 87.36C660.12 87.36 669.72 78.69 669.72 63.36C669.72 48.03 660.12 39.36 647.56 39.36C635 39.36 625.23 48.02 625.23 63.36C625.23 78.7 634.83 87.36 647.53 87.36H647.56ZM728.16 78.5604V40.7704H715.59V27.7004H728.16V9.38037H742.61V27.7004H760.54V40.7704H742.61V78.5604C742.61 83.3904 744.72 85.9504 749.39 85.9504H759.9V99.0104H749.39C737.06 99.0104 728.17 91.0504 728.17 78.5604H728.16ZM101.83 22.07C119.83 20.06 141.5 29.8 148.01 48.13H148C148.72 50.17 148.5 52.44 147.4 54.3C140.145 66.6052 129.86 69.9085 120.945 72.7721C110.812 76.0266 102.448 78.713 102.31 93.4C102.313 93.9479 102.318 94.6524 102.323 95.4216C102.335 97.1935 102.35 99.3082 102.35 100.64V100.9C102.344 100.918 102.342 100.925 102.337 100.928C102.333 100.93 102.328 100.93 102.32 100.93H92.92C91.9 100.92 91.07 100.1 91.07 99.08C91.0652 98.1777 91.0696 97.1615 91.0732 96.3033C91.0772 95.3639 91.0805 94.6138 91.07 94.41C90.71 87.76 93.4 77.35 99.2 71.13C104.463 65.8944 109.938 64.4511 115.45 62.9982C122.066 61.2542 128.735 59.4965 135.15 51.15C135.52 50.68 135.65 50.05 135.48 49.48C132.82 40.68 119.66 31.39 101.72 33.81C100.9 33.92 100.25 34.56 100.13 35.38C98.73 44.62 93.66 53.59 84.58 56.22C76.1 59.1042 71.6914 54.808 66.6955 49.9395C64.7455 48.0392 62.706 46.0517 60.3 44.37C50.65 37.82 35.8 36.51 25.03 42.75C25.005 42.765 24.9775 42.7825 24.95 42.8C24.9225 42.8175 24.895 42.835 24.87 42.85C-15.36 70.71 44.32 116.52 60.93 71.28C61.24 70.42 62.13 69.92 63.03 70.09C64.0262 70.2843 65.3574 70.543 66.7344 70.8107C68.1217 71.0804 69.5556 71.3591 70.74 71.59C71.76 71.79 72.43 72.79 72.2 73.81C62.68 115.56 -2.35 107.19 0.0699976 63.22C2.23 26.43 50.36 16.36 72.47 39.68C72.7774 40.0044 73.0642 40.3089 73.3332 40.5946C76.3893 43.8401 77.1559 44.6543 79.95 44.59C85.02 44.63 86.61 38.99 86.6 38.99C86.91 37.46 85.99 36.41 84.52 36.08C76.24 34.21 71.47 32.36 66.78 28.49C62.15 24.66 58.63 19.82 55.6 9.15C54.25 4.4 56.54 -4.46028e-10 63.07 -4.46028e-10C72.48 0.01 78.09 0.74 84.3 4.46C89.81 7.75 94.3 12.58 98.21 20.51C98.69 21.5 100.73 22.19 101.83 22.07ZM87.1673 26.1803L87.17 26.18H87.18C88.28 26.07 89.1 25.11 88.72 24C84.1574 10.8303 70.3456 9.5893 68.3721 9.41198L68.35 9.41C66.77 9.27 66.38 10.14 66.73 11.22C72.0539 27.751 86.367 26.2635 87.1673 26.1803Z"></path></svg>
