<svg fill="none" height="53" viewBox="0 -7 159 53" width="159" xmlns="http://www.w3.org/2000/svg"><g fill="#240642"><path d="m103.053 35.099c-.924-1.1358-1.427-2.5542-1.427-4.0173v-10.566c0-7.4986-3.5339-11.79207-9.7854-11.79207-8.3235 0-9.9352 4.53417-12.1503 8.39097-.1076.1869-.3446.2525-.5342.1513l-.4631-.2479c-.1978-.1057-.2698-.3546-.1577-.5497l.6318-1.1048c.3992-.6855.6134-1.464.6134-2.258v-1.5943c0-1.0291-.834-1.86232-1.8623-1.86232h-9.0637c-1.3656 0-2.1003 1.60252-1.2106 2.63712l1.3209 1.536c1.3309 1.5488 2.0638 3.5233 2.0638 5.5652v10.968c0 1.2169-.2598 2.4193-.763 3.5277l-1.0501 2.3136c-.4795 1.0574.2935 2.2561 1.4539 2.2561h11.3226c1.3482 0 2.0893-1.5679 1.2343-2.6098l-.9161-1.1167c-.9353-1.1394-1.4467-2.5679-1.4467-4.0409v-6.0519c0-2.1131.5059-4.2088 1.5651-6.0374 1.2854-2.2187 2.9645-3.3527 5.0656-3.3527 2.8277 0 4.3482 2.0145 4.3482 5.6526v9.8304c0 1.1877-.2479 2.3619-.7274 3.4484l-.8988 2.0365c-.4658 1.0556.3072 2.2415 1.4603 2.2415h10.7485c1.344 0 2.086-1.5606 1.239-2.6034l-.609-.7484z"/><path d="m123.239 34.2375c-.362.072-.717.1222-1.029.1294-2.921 0-4.326-1.8386-4.326-5.6207v-15.029h5.319c.615 0 1.115-.4987 1.115-1.1149v-1.8204c0-.6153-.5-1.11483-1.115-1.11483h-6.807c-.191 0-.345-.15497-.345-.34548v-.50957c0-.18961.153-.34458.343-.34549h.691c.441.00091.799-.35642.799-.79762v-3.97626c0-.75843-.614-1.37283-1.373-1.37283h-3.914c-.713 0-1.344.46217-1.556 1.14311-.451 1.49133-1.539 6.20414-5.077 6.20414h-1.051c-.613 0-1.112.49863-1.112 1.11483v1.8204c0 .6162.499 1.1149 1.112 1.1149h3.243v15.4091c0 6.2689 3.19 9.7283 8.972 9.7283 2.885 0 5.502-1.0538 7.086-2.9535.616-.742-.025-1.8496-.975-1.6636z"/><path d="m66.4053 33.1028c-1.7238.3108-2.8888-1.0392-2.8888-3.1577v-10.1977c0-7.2725-4.6098-11.17953-13.5632-11.17953-8.0182 0-13.4949 3.08293-13.5095 7.73833-.0036.8359.31 1.6545.7721 2.4439.743 1.1404 2.0857 1.9052 3.6235 1.9052 2.3409 0 4.2388-1.7657 4.2388-3.9435-.0073-2.2333-1.8933-3.3655-2.4649-3.5779.4066-.3464 2.1623-1.6991 4.7548-1.6991 4.1212 0 6.3281 3.123 6.3281 7.9871v1.9335c-3.093 0-6.5633.3108-9.0036.9051-5.9717 1.3045-9.1184 4.7028-9.1184 8.9362 0 4.7738 3.7994 7.7565 9.8212 7.7565 4.1796 0 7.6527-1.4622 9.2798-3.907 1.0283 2.0647 3.3081 3.3655 6.2406 3.3655 3.7921 0 5.7784-1.9781 6.4056-4.3299.1623-.6691-.3437-1.0893-.9143-.9781zm-12.71-2.2872c-.3227 2.2762-1.8961 3.6345-4.1759 3.6345-2.4986 0-4.1796-1.681-4.1796-4.3409 0-2.0611.9216-3.8642 2.9325-4.732 1.3546-.5989 3.4695-.9243 5.423-.9781z"/><path d="m157.112 33.1028c-1.724.3108-2.889-1.0392-2.889-3.1577v-10.1977c0-7.2725-4.609-11.17953-13.563-11.17953-8.018 0-13.495 3.08293-13.509 7.73833-.004.8359.31 1.6545.772 2.4439.743 1.1404 2.086 1.9052 3.623 1.9052 2.341 0 4.239-1.7657 4.239-3.9435-.007-2.2333-1.893-3.3655-2.465-3.5779.407-.3464 2.163-1.6991 4.755-1.6991 4.121 0 6.328 3.123 6.328 7.9871v1.9335c-3.093 0-6.563.3108-9.003.9051-5.972 1.3045-9.119 4.7028-9.119 8.9362 0 4.7738 3.8 7.7565 9.821 7.7565 4.18 0 7.653-1.4622 9.28-3.907 1.028 2.0647 3.308 3.3655 6.241 3.3655 3.792 0 5.778-1.9781 6.405-4.3299.163-.6691-.343-1.0893-.914-.9781zm-12.71-2.2872c-.322 2.2762-1.896 3.6345-4.176 3.6345-2.498 0-4.179-1.681-4.179-4.3409 0-2.0611.921-3.8642 2.932-4.732 1.355-.5989 3.47-.9243 5.423-.9781z"/><path d="m37.1141.0482757h-4.9216c-1.0592 0-1.6937 1.1768343-1.1112 2.0619643l.8432 1.28076c.7202 1.09479.8615 2.47217.3774 3.69003l-8.8294 22.20677c-.4066 1.0692-.8177 1.8021-1.0055 1.9826-.1003.0957-.2671.1249-.3974.0283l-.4658-.371c-.1477-.1112-.1395-.2726-.0037-.4239.2589-.3437.4193-.7584.5105-1.1358.1085-.4531.072-.9289-.0939-1.3646l-7.4767-19.76468c-.4941-1.30445-.474-2.74747.0538-4.03825l.7985-1.95167c.4303-1.05013-.3427-2.2014367-1.4776-2.2014367h-12.04824c-1.623501 0-2.46944 1.9316167-1.370088 3.1248567l.766628.83226c1.40838 1.52779 2.5214 3.30353 3.28439 5.23697l10.73551 28.05535c.2808.7119.9681 1.1796 1.7329 1.1796h5.9444c.7639 0 1.4503-.4658 1.731-1.1759l13.906-35.06628c.4157-1.04831-.3564-2.1850318-1.484-2.1850318z"/></g></svg>